<svg xmlns="http://www.w3.org/2000/svg" viewBox="0 0 923.6 906.5"><path fill="#CE0054" d="M-.3.4h924v906H-.3z"/><g fill="#FFF"><path d="M709.8 648.6c-22.4 6-46.3 7.9-68 15.3 36.8-31.6 34.7-80.4 59.3-117.6 7.8-10.5 14.3-21.6 23.4-31.6-14.9 30-8.5 68.9-25.6 98-6.6 11.6-16.1 22.8-26.5 31.8 3.4-.1 6.4-3.1 9.4-5.1 27.9-27.8 64.3-35.6 94.5-58.2 12.1-9.6 23.2-22.2 28.5-35.9-5.8 46.2-51.7 89.5-95 103.3zM810.3 461.6c-13.6 19.4-30.2 37.5-42.8 57.2 1.4-15.6 3.3-34.8-2.8-49.6-10.5-31.9-19.8-64.2-22.8-99.2l.4-13.4c7.9 35.7 43 60.3 40.8 100.3.8 9.7-2.2 18-4 26.5l.6.6 1.6-1.8c5.2-19.7 7.8-40.3 15.9-58.7 11.5-26.4 25.9-53 20-84.9 17.5 37.8 12.2 87.9-6.9 123z"/><path d="M788.8 259.3c23 31.2 28 80.9 11.3 116.6-6.2 15.2-10.7 31.3-13.1 48.1-1.2-2.9-1.4-6.8-2.5-10-9.2-35-42.3-60-55.9-93-4.3-10.8-8-21.9-10-33.7 14.5 26.9 50.4 40.8 60.2 70.5 4 7.5 3.8 16.9 6.3 24.9.5 0 1-.4 1-.9-4.3-30.5-3-62.5 1.2-92.7-.2-16.3-1.8-32.2-10.9-44.8 5.7 3.4 8.3 9.9 12.4 15z"/><path d="M772.5 253.3c6 27.3-2.8 53.9 2.8 81.5l-.2.2c-14.9-29.2-46.4-43-68.1-66.4-12.6-13.9-18.1-30.8-21.2-48.7 12.4 30 46 36.6 65.3 61.9 6.4 5.8 8.6 13.9 12.7 20.5l.7-.7c-11.1-23.7-14.8-50.3-22.5-75.5-3.9-10.9-11.6-21.7-21.9-28.6 25.2 5.2 47.2 31.6 52.4 55.8z"/><path d="M704.9 190.6c19.1 17.1 27.7 39.1 33.2 62l3.1 7.3c-27.7-19.9-52.8-46.6-70.4-74.9l-21.6-21.8c19 8 39.5 12.8 55.7 27.4zM268.1 166.8c-19.1 16.8-32.4 38-46.6 57.7-12.7 15.7-29 26.1-43.4 39.7 7.8-16.1 8.1-35.4 19.1-50.2 15.8-27.4 44.9-37 70.9-47.2z"/><path d="M163.5 225.2c9.3-11.6 21.1-19.6 34.4-23-25.8 17.7-24.1 49.4-32.2 75.8-2.6 9.7-7.1 18.7-9.4 28.7l.7.5c4.3-11.3 11.8-22 21.2-31.2 18.3-16.9 45.4-27.4 54.3-52.4-.4 34.7-29.4 62-57.1 81.5-11.4 10-22.4 21.4-28.7 34.3-.6-8.8 1.3-17.6.7-26.9-3.1-30.3-5.3-64.8 16.1-87.3z"/><path d="M111.4 328.8c-.8-30.7 12-55.8 29.9-78.7.5-.3.9-.8 1.6-.7-19.8 30-3.4 67.9-4.3 102l-2.6 35c.4.3.4 1.3 1.3.9 1.2-3.9 1.4-8.1 2.2-12.1 4.7-28.2 29.2-48.2 50.6-67.7 4.6-5.1 8.6-10.3 11-16.3-1.7 14-6.2 28.2-12 41.2-16.7 32.5-47.4 59.1-53 96.3-2.8-35.5-27.1-62.1-24.7-99.9z"/><path d="M96.5 372.5c2.2-9.6 3.9-19.5 8.1-28.4-7.9 40.6 19.4 69.8 28.3 105 3.7 13.2 4.7 27.3 10 39.6.5.3.9-.3 1.2-.6-13.3-37.4 5.9-72.1 25.3-101.4 4.7-7.9 7.4-16.8 9.8-25.9 2.1 16.9-2.2 36.4-4.7 54-4.7 22.3-11.7 43.5-17.8 65.2-4 13.6-3 28.8-.9 43l-1.9-1.5c-14.2-26.2-42.3-46.6-50.6-75.1-6.9-22.7-11.5-49.1-6.8-73.9z"/><path d="M95.2 451.8c3.1 43 49.4 65.8 70.8 101.4 5.1 7.3 9.5 15.4 16.3 21.5-1.1-4.6-5.3-8.4-6.9-13.1-7.5-14.9-10.2-32.7-8.4-50.8 2.1-22 11.3-42.4 7.8-65.5 18.8 40.6 13.1 91.4 23.7 135.4 2.8 9.6 8.3 18.2 12 27.4-38.7-26.4-91.5-51.5-108.7-99.8-7.4-16.8-8.2-37.4-6.6-56.5z"/><path d="M118.3 550.6c21.6 48.8 75.7 52.9 111.9 82.6 6.7 5.9 13.7 10.9 21.2 14.5l.4-.4c-8.3-7.5-18-16.1-23.8-25.9-21.2-29.5-13.8-70.8-29.7-102.6 14.4 17.3 27.6 35.2 36.3 54.8 13 32 17.9 68.1 47.9 92.3-32.5-10.7-70.5-7.7-99.2-27.7-31.2-19.1-59.1-51.8-65-87.6z"/><path d="M173.8 641.7c34.6 39.4 91.2 26.2 137.3 36.5 6.5.9 12.5 3.5 19.4 2.4-5.5-3.5-13.1-3.1-19.1-6.3-36.1-12.7-41.4-51.8-61.1-78.2 25.1 16.6 46.1 39.1 69.3 60.9 16.6 14.6 36.6 21.3 57.7 25.6-5.1 1.9-11.7 1.3-17.1 2.8-37.9 9.3-80 24.5-120.1 10.9-26.2-8.2-53.1-28.9-66.3-54.6z"/><path d="M643.7 733.5c-39 14.6-79.7-.7-110.2-23.8-12.3-7.8-23.2-19.1-39.2-18.1-5.8-.1-11.4.2-16.3 1.6 29.6 13.8 57.1 32.8 82.2 57-4.2 4.8-9.7 9.4-14.9 13.5-24.2-26.1-51.1-51.2-81.1-65.9-5.9.8-11.5 4.3-16.8 7.2-24.5 15.5-48.6 35.4-66.8 59.7L365 751.8c24.9-25.2 52.5-44.9 82.7-58.9-29.6-9.4-49 15.4-71.5 28.1-26.2 18.3-63.9 26.9-95.6 14.3-17-6.5-33.6-16-45.9-31.5 24.9 17.2 62.1 19 90.5 7.8 38.1-16.5 77.6-37.4 123.5-27.4 7.2.1 14.1 7.3 20.9 1.2 34.1-8.9 72.7-2.8 102.1 12.8l30.3 12.1c28.1 10.4 64.5 7.5 88.6-9.6-12.5 15.5-29.4 26.5-46.9 32.8z"/><path d="M685.5 693.2c-43.8 16.5-87.9-3.8-129.8-10.5l-8.1-1v-.3c20.1-4.6 39.5-10.5 55.5-24.9 23.5-22.6 44.5-45.9 70.6-63.7-19.4 24.8-21.4 60.2-53.4 76.2-7.9 5.2-17.9 6.1-26.1 10 11.7.3 22.3-3.9 33.9-5.1 42.9-6.7 92 .2 122.1-36.4-11.2 25.4-39.2 46.7-64.7 55.7zM765.1 569.9c-17.3 11.3-34.8 21.8-51.5 34.7V603c25.5-42.3 13-100.4 28.7-147l5.9-15.6c-3.3 29 9.3 53.6 8.4 82.7-.9 17.6-6.6 33.2-15.9 47.2h1.6c12.5-16.4 22.2-33.8 36.8-49.4 22.6-21.8 45.6-44.2 48.6-74.5 7.7 50.6-20.7 94.9-62.6 123.5z"/></g><text transform="matrix(1 0 0 1 320.77 515.28)" fill="#FFF" font-family="'SourceCodePro-Bold'" font-size="455.4694">&amp;</text><text transform="matrix(.92 0 0 1 321.94 617.65)" fill="#FFF" font-family="'SourceCodePro-Semibold'" font-size="140.3611" letter-spacing="-7.6">ssdc</text><text transform="translate(174.98 525.6)" fill="#FFF" font-family="'SourceCodePro-Regular'" font-size="278.5258">&lt;</text><text transform="translate(587.22 525.6)" fill="#FFF" font-family="'SourceCodePro-Regular'" font-size="278.5258">&gt;</text></svg>